HIERARCHY
ROOT hip
{
	OFFSET 0.000000 0.000000 0.000000 
	CHANNELS 6 Xposition Yposition Zposition Xrotation Zrotation Yrotation
	JOINT abdomen
	{
		OFFSET 0.000000 3.402643 0.000000 
		CHANNELS 3 Xrotation Zrotation Yrotation
		JOINT chest
		{
			OFFSET 0.000000 8.438565 -0.680529 
			CHANNELS 3 Xrotation Zrotation Yrotation
			JOINT neck
			{
				OFFSET 0.000000 10.207942 -0.272212 
				CHANNELS 3 Xrotation Zrotation Yrotation
				JOINT head
				{
					OFFSET 0.000000 3.130431 0.000000 
					CHANNELS 3 Xrotation Zrotation Yrotation
					End Site
					{
						OFFSET 0.000000 3.130435 0.000000 
					}
				}
			}
			JOINT lCollar
			{
				OFFSET 3.470700 6.669187 -0.816635 
				CHANNELS 3 Yrotation Zrotation Xrotation
				JOINT lShldr
				{
					OFFSET 3.198488 0.000000 0.000000 
					CHANNELS 3 Zrotation Yrotation Xrotation
					JOINT lForeArm
					{
						OFFSET 10.139888 0.000000 0.000000 
						CHANNELS 3 Yrotation Zrotation Xrotation
						JOINT lHand
						{
							OFFSET 8.370511 0.000000 0.000000 
							CHANNELS 3 Zrotation Yrotation Xrotation
							End Site
							{
								OFFSET 4.083176 0.000000 0.000000 
							}
						}
					}
				}
			}
			JOINT rCollar
			{
				OFFSET -3.470700 6.669187 -0.816635 
				CHANNELS 3 Yrotation Zrotation Xrotation
				JOINT rShldr
				{
					OFFSET -3.198488 0.000000 0.000000 
					CHANNELS 3 Zrotation Yrotation Xrotation
					JOINT rForeArm
					{
						OFFSET -10.139888 0.000000 0.000000 
						CHANNELS 3 Yrotation Zrotation Xrotation
						JOINT rHand
						{
							OFFSET -8.370511 0.000000 0.000000 
							CHANNELS 3 Zrotation Yrotation Xrotation
							End Site
							{
								OFFSET -4.083176 0.000000 0.000000 
							}
						}
					}
				}
			}
		}
	}
	JOINT lThigh
	{
		OFFSET 5.308129 -1.633274 1.361059 
		CHANNELS 3 Xrotation Zrotation Yrotation
		JOINT lShin
		{
			OFFSET -2.041588 -20.007561 0.000000 
			CHANNELS 3 Xrotation Zrotation Yrotation
			JOINT lFoot
			{
				OFFSET 0.000000 -19.190928 -1.224953 
				CHANNELS 3 Xrotation Yrotation Zrotation
				End Site
				{
					OFFSET 0.000000 -2.449906 4.627600 
				}
			}
		}
	}
	JOINT rThigh
	{
		OFFSET -5.308129 -1.633274 1.361059 
		CHANNELS 3 Xrotation Zrotation Yrotation
		JOINT rShin
		{
			OFFSET 2.041588 -20.007561 0.000000 
			CHANNELS 3 Xrotation Zrotation Yrotation
			JOINT rFoot
			{
				OFFSET 0.000000 -19.190928 -1.224953 
				CHANNELS 3 Xrotation Yrotation Zrotation
				End Site
				{
					OFFSET 0.000000 -2.449906 4.627600 
				}
			}
		}
	}
}
MOTION
Frames: 15
Frame Time: 0.016667
3.785560 50.959270 -2.545136 -0.161318 -4.158398 -84.216881 38.790585 4.150278 -2.569417 2.094020 6.522382 -5.206376 -11.661916 2.370326 -0.457616 0.199813 -4.461479 52.205322 -18.436012 18.740578 0.974166 -2.503996 -21.666883 -19.946472 -56.386738 5.000000 -7.515227 -60.544540 24.162817 13.817064 1.333420 9.823063 -0.520904 72.681503 11.866729 13.216486 96.615906 5.000000 -0.639534 41.750710 -1.654331 1.691131 -6.993285 26.299545 22.753027 33.600800 -3.917968 -2.821213 -8.335033 7.184195 -14.000422 -14.545205 -21.714638 19.163834 25.038767 8.100909 4.314404 -7.155016 -17.614752 17.279636 
4.100505 51.020580 -2.498664 0.741237 -3.124569 -83.884041 38.579727 4.370073 -3.946833 2.092221 7.095305 -7.359485 -13.137294 2.933542 -0.651797 -1.026154 -4.496934 55.075985 -19.923651 20.278627 1.075588 -6.210082 -37.834732 -25.893078 -54.158810 4.256093 -4.206109 -60.930145 28.362707 16.522766 0.675035 10.418058 -0.553425 70.754158 10.577765 8.893263 95.460220 5.000000 -0.806069 41.845989 0.328563 0.189424 -8.243212 27.456217 24.933956 33.521782 -3.575884 -2.563859 -8.184307 4.068220 -14.742597 -14.487859 -21.139648 19.090168 22.423418 7.716606 3.662077 -5.446846 -18.060629 17.982840 
4.338458 51.087185 -2.333998 1.419444 -2.014920 -85.199974 38.716675 4.426738 -4.692964 2.224453 7.088063 -8.380842 -14.767224 3.168452 -0.796347 -2.796366 -4.445253 56.824959 -22.127417 20.899696 1.119940 -15.629231 -49.908649 -21.917023 -53.337948 1.642683 -2.400130 -60.217838 28.985899 18.396898 0.407980 10.252385 -0.533485 69.430550 9.210978 4.921812 92.677017 5.000000 -0.538116 40.901272 1.598380 -0.397986 -8.653634 28.265102 26.939198 33.508976 -3.692761 -2.644406 -8.383295 3.200242 -15.197863 -15.209892 -20.690083 19.377525 19.900558 7.339227 3.057940 -3.530011 -17.114817 18.711687 
4.525054 51.157330 -2.090497 1.916175 -0.836004 -87.612885 39.100101 4.411576 -5.018528 2.445032 6.716748 -8.611684 -16.492987 3.189470 -0.917869 -4.902752 -4.328486 57.807465 -24.813238 20.909870 1.120611 -34.197475 -57.242088 -6.499967 -53.614132 0.867795 -1.805217 -58.919006 27.121162 19.732578 0.403370 9.569662 -0.507781 68.530991 7.795347 1.174861 88.702660 5.000000 0.417403 39.291996 2.402094 -0.405792 -8.478518 28.840036 28.871944 33.569260 -4.102978 -2.938825 -8.783339 3.753317 -15.552735 -16.472857 -20.311470 19.878014 17.465059 6.947470 2.509588 -1.580503 -15.192084 19.368338 
4.692834 51.207767 -1.847588 2.196354 0.347648 -90.299675 39.522636 4.261767 -5.414016 2.717069 6.297530 -8.783433 -18.031902 3.194101 -1.017731 -6.893466 -4.126465 58.275948 -27.035645 20.544994 1.110299 -57.675060 -60.127666 14.554832 -53.979362 0.334446 -1.393033 -57.739491 25.232641 21.053690 0.495264 8.906492 -0.471894 67.883553 6.539962 -2.076459 84.316414 5.000000 1.991946 38.003548 2.936362 -0.219906 -8.125890 29.245989 31.049467 33.675381 -4.434679 -3.176725 -9.211696 4.408760 -15.846695 -18.005898 -19.989346 20.879042 15.337386 6.645188 2.067278 0.192246 -13.403330 19.948101 
4.785411 51.179337 -1.607229 1.714913 1.462796 -94.123558 40.195820 3.647890 -6.111485 3.226263 5.695960 -8.649950 -18.874975 3.185290 -1.075570 -8.341945 -3.712755 56.686302 -27.422260 18.687813 1.012954 -75.622910 -56.948097 32.596329 -54.757034 0.784608 -1.670168 -56.730076 23.301554 22.538618 0.978431 8.272509 -0.439082 67.937843 6.112383 -3.507741 78.920319 5.000000 4.046956 37.999641 2.352620 0.859542 -7.226898 28.897045 34.161087 34.082081 -4.334097 -3.143094 -9.768019 5.404493 -15.879667 -20.651386 -19.725533 23.986420 14.461570 6.734441 2.011075 1.217374 -12.472285 20.432886 
4.877957 51.150879 -1.366869 1.170448 2.544877 -97.965141 40.864487 3.053443 -6.811308 3.742095 5.103888 -8.517071 -19.708614 3.165352 -1.142129 -9.799577 -3.338599 55.090004 -27.796947 16.820063 0.896098 -89.495087 -51.305046 45.000000 -55.532356 1.242588 -1.935416 -55.836235 21.356997 23.982178 1.462051 7.648275 -0.405422 67.996811 5.681280 -4.925997 73.454529 5.000000 6.306252 37.998383 1.781674 1.923891 -6.369180 28.482065 37.265644 34.448681 -4.224524 -3.131362 -10.313915 6.491411 -15.880136 -23.265856 -19.324825 27.054579 13.577974 6.810423 1.952444 2.210487 -11.600013 20.833723 
4.964587 51.069916 -1.273471 0.499529 3.736311 -100.701294 41.322426 2.753903 -7.355237 4.217073 4.715787 -8.357870 -19.701542 2.910571 -1.063617 -9.915565 -3.295361 54.006989 -26.648947 14.067138 0.686661 -90.000000 -45.066681 45.000000 -57.101097 2.699275 -2.761024 -55.000538 18.753702 24.692337 1.414140 7.775064 -0.411978 67.925850 5.301900 -6.192992 68.908768 5.000000 7.865580 37.490337 2.414811 1.618093 -6.475715 28.191523 39.841537 34.997864 -3.820143 -2.852972 -10.595624 6.705510 -15.895609 -25.766935 -18.837191 28.489462 13.432203 6.664353 1.874931 2.851016 -10.260740 21.197441 
5.049739 50.975796 -1.216867 -0.238807 4.936677 -103.183510 41.718983 2.547410 -7.866730 4.677177 4.376238 -8.179339 -19.477526 2.582944 -0.944537 -9.700937 -3.321939 53.067123 -25.153383 11.077506 0.534439 -90.000000 -38.610706 45.000000 -58.832920 4.465358 -3.640631 -54.183575 15.999346 25.173506 1.230915 8.087172 -0.429480 67.825104 4.931826 -7.415946 64.642990 5.000000 9.097590 36.838985 3.310793 0.956279 -6.797017 27.969152 39.975117 35.567810 -3.337997 -2.539501 -10.796792 6.716424 -15.942500 -28.239754 -18.300528 29.502230 13.484202 6.421756 1.797097 3.392491 -8.852644 21.525961 
5.155202 50.883503 -1.218185 -0.880927 6.103267 -104.612633 42.120682 2.642332 -7.939969 5.064784 4.241326 -7.894468 -19.133411 2.077714 -0.759165 -9.265899 -3.792392 52.683289 -24.150089 8.349623 0.426217 -90.000000 -33.030258 45.000000 -61.718082 2.566876 -2.217777 -53.572449 13.847015 25.270681 0.715675 8.389581 -0.445145 67.766014 4.050514 -9.473507 61.468712 5.000000 9.807017 36.024734 4.358563 0.383903 -7.699718 27.911604 39.982845 36.099541 -3.097736 -2.407880 -10.918186 6.878541 -15.894753 -30.327419 -17.900236 30.295303 13.745253 6.205980 1.751517 3.822324 -8.117613 21.751358 
5.291143 50.793922 -1.306381 -1.322566 7.261589 -104.455505 42.519077 3.181873 -7.324202 5.306152 4.437951 -7.445397 -18.601990 1.283365 -0.460763 -8.503924 -4.925366 53.132099 -23.871487 6.018754 0.304812 -90.000000 -28.884060 45.000000 -65.972191 -5.000000 1.691069 -53.246822 12.618622 24.839691 -0.307609 8.653069 -0.458777 67.799736 2.428562 -12.776120 59.848835 5.000000 9.886539 34.934937 5.634201 -0.045739 -9.395231 28.134199 39.982002 36.566822 -3.234385 -2.561137 -10.854035 7.183137 -15.780488 -31.863861 -17.802588 30.740051 14.315047 6.019172 1.793934 3.952876 -8.460570 21.856058 
5.427092 50.704346 -1.394614 -1.772263 8.422257 -104.312447 42.916813 3.704053 -6.713511 5.549626 4.624822 -6.996335 -18.077339 0.487488 -0.172519 -7.740975 -6.059610 53.575478 -23.607691 3.687860 0.183696 -90.000000 -24.502750 45.000000 -69.815048 -5.000000 4.452438 -52.902302 11.379200 24.398830 -1.332278 8.926081 -0.463256 67.934135 0.806041 -16.083170 58.228645 5.000000 9.913703 33.839283 6.891688 -0.499946 -11.115202 28.354559 39.987370 37.054028 -3.351680 -2.740155 -10.748768 7.510310 -15.677369 -33.415493 -17.675856 31.196352 14.863639 5.862565 1.798252 4.154160 -8.777835 21.981916 
5.600343 50.678978 -1.573898 -2.123751 9.156338 -102.447556 43.505192 4.863204 -5.576827 5.332332 4.507078 -7.181433 -17.481304 -0.493332 0.133898 -7.260472 -6.720567 53.895214 -23.498537 3.092936 0.152987 -90.000000 -23.038778 35.499401 -72.666435 -5.000000 6.790190 -52.156319 12.312162 25.133162 -0.899313 9.316173 -0.483428 68.159523 -2.359018 -21.377146 58.371502 5.000000 10.220900 33.415798 9.420590 -5.062057 -13.058096 28.188566 39.990437 36.891487 -3.306809 -2.694533 -10.121175 6.547562 -16.038895 -34.464367 -18.203501 31.198959 16.453608 6.193727 2.109001 3.614554 -10.238495 21.607792 
5.773608 50.653622 -1.753220 -2.452407 9.901032 -100.581932 44.143295 6.014409 -4.433662 5.106679 4.379619 -7.367304 -16.883598 -1.483785 0.441688 -6.783331 -7.381664 54.207359 -23.389687 2.488259 0.121757 -87.398064 -20.792656 24.942533 -75.380348 -5.000000 8.074783 -51.395256 13.213660 25.881582 -0.466202 9.706262 -0.505224 68.675140 -5.502464 -26.690891 58.511082 5.000000 10.527051 32.832584 11.924633 -9.656563 -15.002266 27.998547 39.775082 36.717113 -3.293233 -2.648341 -9.446386 5.516070 -16.397738 -35.511658 -18.730583 31.171938 18.060040 6.527133 2.452211 2.965929 -11.648764 21.228895 
5.948646 50.638973 -2.000603 -2.866856 10.781777 -98.630600 44.356194 6.842221 -3.586939 4.841512 4.379496 -7.367246 -16.626766 -2.004588 0.589828 -6.610828 -7.930130 54.148670 -23.203484 2.146889 0.104113 -82.796364 -18.794983 16.808029 -77.430336 -5.000000 7.883129 -50.044868 12.953042 26.977341 -0.138244 10.320651 -0.537015 68.742599 -8.308215 -31.161369 58.532459 5.000000 11.189841 31.530943 14.954916 -15.170400 -16.905638 27.853628 38.571873 36.484482 -3.468615 -2.773243 -8.793427 4.107870 -17.088123 -36.717056 -19.326206 30.825375 19.808186 6.741911 2.761725 2.284222 -12.772725 20.803738 
